<svg xmlns="http://www.w3.org/2000/svg" width="352" height="352" viewBox="0 0 352 352" class="global-nav__logo"><path fill="#0067F5" d="M175.657 5.343H80.205l-.183.332L66.85 29.672h108.808c80.598 0 145.978 65.36 145.978 145.985S256.275 321.64 175.657 321.64c-80.62 0-145.985-65.366-145.985-145.984a145.7 145.7 0 0 1 7.078-44.919h27.87c-19.757 48.823-5.303 104.824 35.614 137.987 40.918 33.163 98.698 35.706 142.371 6.267s62.992-83.954 47.6-134.324c-15.39-50.37-61.88-84.777-114.548-84.778H52.463l-13.35 24.322h136.544c42.893.009 80.51 28.634 91.953 69.972 11.443 41.339-6.1 85.233-42.884 107.296s-83.767 16.877-114.85-12.68c-31.083-29.558-38.628-76.222-18.441-114.069h31.575c-21.076 24.742-22.095 60.816-2.45 86.709 19.645 25.892 54.66 34.626 84.164 20.992s45.545-45.962 38.557-77.703-35.123-54.343-67.624-54.326H24.727l-13.356 24.335a170.6 170.6 0 0 0-6.028 44.919c0 94.056 76.25 170.313 170.314 170.313S345.97 269.713 345.97 175.657c0-94.057-76.257-170.314-170.313-170.314m0 125.395c24.807 0 44.918 20.11 44.918 44.919 0 24.807-20.11 44.918-44.918 44.918s-44.919-20.11-44.919-44.918 20.11-44.919 44.919-44.919"></path></svg>