<svg xmlns="http://www.w3.org/2000/svg" xmlns:xlink="http://www.w3.org/1999/xlink" viewBox="0 0 192 192" width="192" height="192" preserveAspectRatio="xMidYMid meet" style="width: 100%; height: 100%; transform: translate3d(0px, 0px, 0px); content-visibility: visible;"><defs><clipPath id="__lottie_element_278"><rect width="192" height="192" x="0" y="0"></rect></clipPath></defs><g clip-path="url(#__lottie_element_278)"><g style="display: block;" transform="matrix(1,0,0,1,77.75,161.75)" opacity="1"><g opacity="1" transform="matrix(1,0,0,1,18.25,9.25)"><path fill="rgb(10,46,101)" fill-opacity="1" d=" M-18,-9 C-18,0.9259999990463257 -9.925999641418457,9 0,9 C9.925999641418457,9 18,0.9259999990463257 18,-9 C18,-9 -18,-9 -18,-9z"></path></g></g><g style="display: block;" transform="matrix(0.9961066246032715,0.08815672248601913,-0.08815672248601913,0.9961066246032715,13.384925842285156,-1.3584442138671875)" opacity="1"><g opacity="1" transform="matrix(1,0,0,1,84,93)"><path stroke-linecap="butt" stroke-linejoin="bevel" fill-opacity="0" stroke="rgb(10,46,101)" stroke-opacity="1" stroke-width="12" d=" M72,63 C72,63 48,57 48,21 C48,21 48,-15 48,-15 C48,-41.5099983215332 26.510000228881836,-63 0,-63 C-26.510000228881836,-63 -48,-41.5099983215332 -48,-15 C-48,-15 -48,21 -48,21 C-48,57 -72,63 -72,63 C-72,63 72,63 72,63z"></path></g><g opacity="1" transform="matrix(1,0,0,1,84,21.780000686645508)"><path stroke-linecap="butt" stroke-linejoin="bevel" fill-opacity="0" stroke="rgb(10,46,101)" stroke-opacity="1" stroke-width="12" d=" M-12,9.779999732971191 C-12,9.779999732971191 -12,2.2200000286102295 -12,2.2200000286102295 C-12,-4.4070000648498535 -6.626999855041504,-9.779999732971191 0,-9.779999732971191 C6.626999855041504,-9.779999732971191 12,-4.4070000648498535 12,2.2200000286102295 C12,2.2200000286102295 12,9.779999732971191 12,9.779999732971191"></path></g></g></g></svg>