<svg xmlns="http://www.w3.org/2000/svg" xmlns:xlink="http://www.w3.org/1999/xlink" viewBox="0 0 192 192" width="192" height="192" preserveAspectRatio="xMidYMid meet" style="width: 100%; height: 100%; transform: translate3d(0px, 0px, 0px); content-visibility: visible;"><defs><clipPath id="__lottie_element_866"><rect width="192" height="192" x="0" y="0"></rect></clipPath></defs><g clip-path="url(#__lottie_element_866)"><g style="display: block;" transform="matrix(1,0,0,1,29.5,49.5)" opacity="1"><g opacity="1" transform="matrix(1,0,0,1,66.1449966430664,61.64500045776367)"><path fill="rgb(128,190,241)" fill-opacity="1" d=" M47.89500045776367,52.39500045776367 C47.89500045776367,52.39500045776367 -47.89500045776367,52.39500045776367 -47.89500045776367,52.39500045776367 C-47.89500045776367,52.39500045776367 -65.8949966430664,-52.39500045776367 -65.8949966430664,-52.39500045776367 C-65.8949966430664,-52.39500045776367 65.8949966430664,-52.39500045776367 65.8949966430664,-52.39500045776367 C65.8949966430664,-52.39500045776367 47.89500045776367,52.39500045776367 47.89500045776367,52.39500045776367z"></path></g><g opacity="1" transform="matrix(1,0,0,1,66.04000091552734,9.25)"><path fill="rgb(0,99,253)" fill-opacity="1" d=" M0,-9 C36.334999084472656,-9 65.79000091552734,-4.9710001945495605 65.79000091552734,0 C65.79000091552734,4.9710001945495605 36.334999084472656,9 0,9 C-36.334999084472656,9 -65.79000091552734,4.9710001945495605 -65.79000091552734,0 C-65.79000091552734,-4.9710001945495605 -36.334999084472656,-9 0,-9z"></path></g><g opacity="1" transform="matrix(1,0,0,1,66.04000091552734,114.25)"><path fill="rgb(128,190,241)" fill-opacity="1" d=" M0,-6.570000171661377 C26.510000228881836,-6.570000171661377 48,-3.628999948501587 48,0 C48,3.628999948501587 26.510000228881836,6.570000171661377 0,6.570000171661377 C-26.510000228881836,6.570000171661377 -48,3.628999948501587 -48,0 C-48,-3.628999948501587 -26.510000228881836,-6.570000171661377 0,-6.570000171661377z"></path></g><g opacity="1" transform="matrix(1,0,0,1,21.242000579833984,64.60299682617188)"><path fill="rgb(0,99,253)" fill-opacity="1" d=" M-3.0220000743865967,49.196998596191406 C-3.111999988555908,49.34700012207031 -3.2019999027252197,49.49800109863281 -3.2019999027252197,49.64799880981445 C-3.2019999027252197,52.09199905395508 6.539999961853027,54.22100067138672 20.993000030517578,55.35300064086914 C20.993000030517578,55.35300064086914 3.007999897003174,-49.35300064086914 3.007999897003174,-49.35300064086914 C3.007999897003174,-49.35300064086914 -18.937000274658203,-55.35300064086914 -18.937000274658203,-55.35300064086914 C-18.937000274658203,-55.35300064086914 -20.992000579833984,-55.35300064086914 -20.992000579833984,-55.35300064086914 C-20.992000579833984,-55.35300064086914 -3.0220000743865967,49.196998596191406 -3.0220000743865967,49.196998596191406z"></path></g><g opacity="1" transform="matrix(1,0,0,1,66.12999725341797,51.61000061035156)"><path fill="rgb(0,99,253)" fill-opacity="1" d=" M-59.54999923706055,-5.550000190734863 C-59.54999923706055,-5.550000190734863 -58.470001220703125,0.7799999713897705 -58.470001220703125,0.7799999713897705 C-42.27000045776367,5.190000057220459 -11.699999809265137,5.639999866485596 -0.09000000357627869,5.639999866485596 C11.520000457763672,5.639999866485596 42.38999938964844,5.190000057220459 58.5,0.7200000286102295 C58.5,0.7200000286102295 59.58000183105469,-5.639999866485596 59.58000183105469,-5.639999866485596 C51.5099983215332,-3.059999942779541 30.329999923706055,-0.36000001430511475 -0.11999999731779099,-0.36000001430511475 C-30.56999969482422,-0.36000001430511475 -51.36000061035156,-3 -59.58000183105469,-5.550000190734863 C-59.58000183105469,-5.550000190734863 -59.54999923706055,-5.550000190734863 -59.54999923706055,-5.550000190734863z"></path></g><g opacity="1" transform="matrix(1,0,0,1,66.1449966430664,82.25499725341797)"><path fill="rgb(0,99,253)" fill-opacity="1" d=" M53.1150016784668,1.3049999475479126 C53.1150016784668,1.3049999475479126 54.19499969482422,-4.965000152587891 54.19499969482422,-4.965000152587891 C43.845001220703125,-2.865000009536743 25.03499984741211,-1.034999966621399 -0.10499999672174454,-1.034999966621399 C-25.2450008392334,-1.034999966621399 -43.814998626708984,-2.865000009536743 -54.19499969482422,-4.934999942779541 C-54.19499969482422,-4.934999942779541 -53.1150016784668,1.3350000381469727 -53.1150016784668,1.3350000381469727 C-36.255001068115234,4.605000019073486 -10.545000076293945,4.965000152587891 -0.10499999672174454,4.965000152587891 C10.335000038146973,4.965000152587891 36.28499984741211,4.605000019073486 53.1150016784668,1.274999976158142 C53.1150016784668,1.274999976158142 53.1150016784668,1.3049999475479126 53.1150016784668,1.3049999475479126z"></path></g><g opacity="1" transform="matrix(1,0,0,1,94.1500015258789,66.81999969482422)"><path fill="rgb(255,255,255)" fill-opacity="1" d=" M-3,-27.989999771118164 C-3,-27.989999771118164 3,-27.989999771118164 3,-27.989999771118164 C3,-27.989999771118164 3,27.989999771118164 3,27.989999771118164 C3,27.989999771118164 -3,27.989999771118164 -3,27.989999771118164 C-3,27.989999771118164 -3,-27.989999771118164 -3,-27.989999771118164z"></path></g><g opacity="1" transform="matrix(1,0,0,1,48.25,66.81999969482422)"><path fill="rgb(255,255,255)" fill-opacity="1" d=" M-3,-27.989999771118164 C-3,-27.989999771118164 3,-27.989999771118164 3,-27.989999771118164 C3,-27.989999771118164 3,27.989999771118164 3,27.989999771118164 C3,27.989999771118164 -3,27.989999771118164 -3,27.989999771118164 C-3,27.989999771118164 -3,-27.989999771118164 -3,-27.989999771118164z"></path></g><g opacity="1" transform="matrix(1,0,0,1,71.21499633789062,66.81999969482422)"><path fill="rgb(255,255,255)" fill-opacity="1" d=" M22.934999465942383,27.989999771118164 C22.934999465942383,27.989999771118164 25.274999618530273,26.100000381469727 25.274999618530273,26.100000381469727 C25.274999618530273,26.100000381469727 -19.065000534057617,-27.989999771118164 -19.065000534057617,-27.989999771118164 C-19.065000534057617,-27.989999771118164 -22.96500015258789,-27.989999771118164 -22.96500015258789,-27.989999771118164 C-22.96500015258789,-27.989999771118164 -25.274999618530273,-26.06999969482422 -25.274999618530273,-26.06999969482422 C-25.274999618530273,-26.06999969482422 19.065000534057617,27.989999771118164 19.065000534057617,27.989999771118164 C19.065000534057617,27.989999771118164 22.934999465942383,27.989999771118164 22.934999465942383,27.989999771118164z"></path></g></g><g style="display: block;" transform="matrix(1,0,0,1,78.02000427246094,10.631999969482422)" opacity="1"><g opacity="1" transform="matrix(1,0,0,1,26.350000381469727,27.954999923706055)"><path fill="rgb(255,255,255)" fill-opacity="1" d=" M15.029999732971191,8.6850004196167 C7.230000019073486,22.21500015258789 -14.130000114440918,24.4950008392334 -14.130000114440918,24.4950008392334 C-14.130000114440918,24.4950008392334 -22.829999923706055,4.84499979019165 -15.029999732971191,-8.6850004196167 C-7.230000019073486,-22.21500015258789 14.130000114440918,-24.4950008392334 14.130000114440918,-24.4950008392334 C14.130000114440918,-24.4950008392334 22.829999923706055,-4.84499979019165 15.029999732971191,8.6850004196167z"></path></g><g opacity="1" transform="matrix(1,0,0,1,26.364999771118164,27.954999923706055)"><path fill="rgb(0,99,253)" fill-opacity="1" d=" M-16.0049991607666,27.704999923706055 C-16.0049991607666,27.704999923706055 -16.875,25.69499969482422 -16.875,25.69499969482422 C-17.264999389648438,24.825000762939453 -26.114999771118164,4.485000133514404 -17.625,-10.1850004196167 C-9.135000228881836,-24.854999542236328 12.885000228881836,-27.375 13.8149995803833,-27.46500015258789 C13.8149995803833,-27.46500015258789 16.0049991607666,-27.704999923706055 16.0049991607666,-27.704999923706055 C16.0049991607666,-27.704999923706055 16.875,-25.69499969482422 16.875,-25.69499969482422 C17.264999389648438,-24.825000762939453 26.114999771118164,-4.485000133514404 17.625,10.1850004196167 C9.164999961853027,24.854999542236328 -12.885000228881836,27.375 -13.8149995803833,27.46500015258789 C-13.8149995803833,27.46500015258789 -16.0049991607666,27.704999923706055 -16.0049991607666,27.704999923706055z M12.194999694824219,-21.135000228881836 C6.795000076293945,-20.145000457763672 -6.914999961853027,-16.7549991607666 -12.46500015258789,-7.15500020980835 C-18.014999389648438,2.444999933242798 -14.085000038146973,16.0049991607666 -12.225000381469727,21.165000915527344 C-6.824999809265137,20.174999237060547 6.885000228881836,16.78499984741211 12.4350004196167,7.184999942779541 C17.985000610351562,-2.4149999618530273 14.055000305175781,-15.975000381469727 12.194999694824219,-21.135000228881836z"></path></g></g></g></svg>