<svg xmlns="http://www.w3.org/2000/svg" xmlns:xlink="http://www.w3.org/1999/xlink" viewBox="0 0 192 192" width="192" height="192" preserveAspectRatio="xMidYMid meet" style="width: 100%; height: 100%; transform: translate3d(0px, 0px, 0px); content-visibility: visible;"><defs><clipPath id="__lottie_element_152"><rect width="192" height="192" x="0" y="0"></rect></clipPath></defs><g clip-path="url(#__lottie_element_152)"><g style="display: block;" transform="matrix(1,0,0,1,116.75,104.75)" opacity="1"><g opacity="1" transform="matrix(1,0,0,1,28.75,28.75)"><path fill="rgb(249,3,8)" fill-opacity="1" d=" M0,-28.5 C15.739999771118164,-28.5 28.5,-15.739999771118164 28.5,0 C28.5,15.739999771118164 15.739999771118164,28.5 0,28.5 C-15.739999771118164,28.5 -28.5,15.739999771118164 -28.5,0 C-28.5,-15.739999771118164 -15.739999771118164,-28.5 0,-28.5z"></path></g></g><g style="display: block;" transform="matrix(1,0,0,1,5.75,59.75)" opacity="1"><g opacity="1" transform="matrix(1,0,0,1,132.25,60.25)"><path fill="rgb(255,238,242)" fill-opacity="1" d=" M-48,-24 C-48,-24 48,-24 48,-24 C48,-24 48,24 48,24 C48,24 -48,24 -48,24 C-48,24 -48,-24 -48,-24z"></path><path fill="rgb(242,199,208)" fill-opacity="1" d=" M-48,-24 C-48,-24 48,-24 48,-24 C48,-24 48,24 48,24 C48,24 -48,24 -48,24 C-48,24 -48,-24 -48,-24z"></path></g><g opacity="1" transform="matrix(1,0,0,1,42.25,60.25)"><path fill="rgb(249,3,8)" fill-opacity="1" d=" M-42,-24 C-42,-24 42,-24 42,-24 C42,-24 42,24 42,24 C42,24 -42,24 -42,24 C-42,24 -42,-24 -42,-24z"></path></g><g opacity="1" transform="matrix(1,0,0,1,88.75,18.25)"><path fill="rgb(255,238,242)" fill-opacity="1" d=" M70.5,18 C70.5,18 22.5,-18 22.5,-18 C22.5,-18 -70.5,-18 -70.5,-18 C-70.5,-18 -22.5,18 -22.5,18 C-22.5,18 70.5,18 70.5,18z"></path><path fill="rgb(242,199,208)" fill-opacity="1" d=" M70.5,18 C70.5,18 22.5,-18 22.5,-18 C22.5,-18 -70.5,-18 -70.5,-18 C-70.5,-18 -22.5,18 -22.5,18 C-22.5,18 70.5,18 70.5,18z"></path></g><g opacity="1" transform="matrix(1,0,0,1,33.25,18.25)"><path fill="rgb(253,116,127)" fill-opacity="1" d=" M-33,-18 C-33,-18 -15,-18 -15,-18 C-15,-18 33,18 33,18 C33,18 -33,18 -33,18 C-33,18 -33,-18 -33,-18z"></path></g><g opacity="1" transform="matrix(1,0,0,1,105.25,60.25)"><path fill="rgb(249,3,8)" fill-opacity="1" d=" M0,11.9399995803833 C-6.570000171661377,11.9399995803833 -11.9399995803833,6.570000171661377 -11.9399995803833,0 C-11.9399995803833,-6.570000171661377 -6.570000171661377,-11.9399995803833 0,-11.9399995803833 C6.570000171661377,-11.9399995803833 11.9399995803833,-6.570000171661377 11.9399995803833,0 C11.9399995803833,6.570000171661377 6.570000171661377,11.9399995803833 0,11.9399995803833z M0,-5.940000057220459 C-3.2699999809265137,-5.940000057220459 -5.940000057220459,-3.2699999809265137 -5.940000057220459,0 C-5.940000057220459,3.2699999809265137 -3.2699999809265137,5.940000057220459 0,5.940000057220459 C3.2699999809265137,5.940000057220459 5.940000057220459,3.2699999809265137 5.940000057220459,0 C5.940000057220459,-3.2699999809265137 3.2699999809265137,-5.940000057220459 0,-5.940000057220459z"></path></g><g opacity="1" transform="matrix(1,0,0,1,159.30999755859375,60.25)"><path fill="rgb(249,3,8)" fill-opacity="1" d=" M0,11.9399995803833 C-6.599999904632568,11.9399995803833 -11.9399995803833,6.570000171661377 -11.9399995803833,0 C-11.9399995803833,-6.570000171661377 -6.570000171661377,-11.9399995803833 0,-11.9399995803833 C6.570000171661377,-11.9399995803833 11.9399995803833,-6.570000171661377 11.9399995803833,0 C11.9399995803833,6.570000171661377 6.570000171661377,11.9399995803833 0,11.9399995803833z M0,-5.940000057220459 C-3.2699999809265137,-5.940000057220459 -5.940000057220459,-3.2699999809265137 -5.940000057220459,0 C-5.940000057220459,3.2699999809265137 -3.2699999809265137,5.940000057220459 0,5.940000057220459 C3.2699999809265137,5.940000057220459 5.940000057220459,3.2699999809265137 5.940000057220459,0 C5.940000057220459,-3.2699999809265137 3.2699999809265137,-5.940000057220459 0,-5.940000057220459z"></path></g><g opacity="1" transform="matrix(1,0,0,1,132.25,60.25)"><path fill="rgb(249,3,8)" fill-opacity="1" d=" M-48,-3 C-48,-3 48,-3 48,-3 C48,-3 48,3 48,3 C48,3 -48,3 -48,3 C-48,3 -48,-3 -48,-3z"></path></g><g opacity="1" transform="matrix(1,0,0,1,132.25,39.25)"><path fill="rgb(249,3,8)" fill-opacity="1" d=" M-48,-3 C-48,-3 48,-3 48,-3 C48,-3 48,3 48,3 C48,3 -48,3 -48,3 C-48,3 -48,-3 -48,-3z"></path></g><g opacity="1" transform="matrix(1,0,0,1,105.25,60.25)"><path fill="rgb(242,199,208)" fill-opacity="1" d=" M0,-5.940000057220459 C-3.2699999809265137,-5.940000057220459 -5.940000057220459,-3.2699999809265137 -5.940000057220459,0 C-5.940000057220459,3.2699999809265137 -3.2699999809265137,5.940000057220459 0,5.940000057220459 C3.2699999809265137,5.940000057220459 5.940000057220459,3.2699999809265137 5.940000057220459,0 C5.940000057220459,-3.2699999809265137 3.2699999809265137,-5.940000057220459 0,-5.940000057220459z"></path></g><g opacity="1" transform="matrix(1,0,0,1,159.30999755859375,60.25)"><path fill="rgb(242,199,208)" fill-opacity="1" d=" M0,-5.940000057220459 C-3.2699999809265137,-5.940000057220459 -5.940000057220459,-3.2699999809265137 -5.940000057220459,0 C-5.940000057220459,3.2699999809265137 -3.2699999809265137,5.940000057220459 0,5.940000057220459 C3.2699999809265137,5.940000057220459 5.940000057220459,3.2699999809265137 5.940000057220459,0 C5.940000057220459,-3.2699999809265137 3.2699999809265137,-5.940000057220459 0,-5.940000057220459z"></path></g></g><g style="display: block;" transform="matrix(1,0,0,1,20.75,104.75)" opacity="1"><g opacity="1" transform="matrix(1,0,0,1,28.75,28.75)"><path fill="rgb(249,3,8)" fill-opacity="1" d=" M0,-28.5 C15.739999771118164,-28.5 28.5,-15.739999771118164 28.5,0 C28.5,15.739999771118164 15.739999771118164,28.5 0,28.5 C-15.739999771118164,28.5 -28.5,15.739999771118164 -28.5,0 C-28.5,-15.739999771118164 -15.739999771118164,-28.5 0,-28.5z"></path></g></g></g></svg>