<svg xmlns="http://www.w3.org/2000/svg" xmlns:xlink="http://www.w3.org/1999/xlink" viewBox="0 0 192 192" width="192" height="192" preserveAspectRatio="xMidYMid meet" style="width: 100%; height: 100%; transform: translate3d(0px, 0px, 0px); content-visibility: visible;"><defs><clipPath id="__lottie_element_168"><rect width="192" height="192" x="0" y="0"></rect></clipPath></defs><g clip-path="url(#__lottie_element_168)"><g style="display: block;" transform="matrix(1,0,0,1,6.980003356933594,17.80999755859375)" opacity="1"><g opacity="1" transform="matrix(1,0,0,1,89.0199966430664,78.19000244140625)"><path fill="rgb(111,210,110)" fill-opacity="1" d=" M0,-77.94000244140625 C43.04499816894531,-77.94000244140625 77.94000244140625,-43.04499816894531 77.94000244140625,0 C77.94000244140625,43.04499816894531 43.04499816894531,77.94000244140625 0,77.94000244140625 C-43.04499816894531,77.94000244140625 -77.94000244140625,43.04499816894531 -77.94000244140625,0 C-77.94000244140625,-43.04499816894531 -43.04499816894531,-77.94000244140625 0,-77.94000244140625z"></path></g><g opacity="1" transform="matrix(1,0,0,1,89.00499725341797,82.66000366210938)"><path fill="rgb(14,122,70)" fill-opacity="1" d=" M5.894999980926514,-29.43000030517578 C5.894999980926514,-29.43000030517578 -5.864999771118164,-29.43000030517578 -5.864999771118164,-29.43000030517578 C-5.864999771118164,-29.43000030517578 -5.954999923706055,-29.3700008392334 -5.954999923706055,-29.3700008392334 C-5.954999923706055,-29.3700008392334 -27.315000534057617,-13.859999656677246 -27.315000534057617,-13.859999656677246 C-27.315000534057617,-13.859999656677246 -30.94499969482422,-2.6700000762939453 -30.94499969482422,-2.6700000762939453 C-30.94499969482422,-2.6700000762939453 -22.7549991607666,22.530000686645508 -22.7549991607666,22.530000686645508 C-22.7549991607666,22.530000686645508 -13.244999885559082,29.43000030517578 -13.244999885559082,29.43000030517578 C-13.244999885559082,29.43000030517578 13.244999885559082,29.43000030517578 13.244999885559082,29.43000030517578 C13.244999885559082,29.43000030517578 22.7549991607666,22.530000686645508 22.7549991607666,22.530000686645508 C22.7549991607666,22.530000686645508 30.94499969482422,-2.6700000762939453 30.94499969482422,-2.6700000762939453 C30.94499969482422,-2.6700000762939453 27.315000534057617,-13.859999656677246 27.315000534057617,-13.859999656677246 C27.315000534057617,-13.859999656677246 5.894999980926514,-29.43000030517578 5.894999980926514,-29.43000030517578z"></path></g><g opacity="1" transform="matrix(1,0,0,1,130.66000366210938,139.72500610351562)"><path fill="rgb(14,122,70)" fill-opacity="1" d=" M19.465999603271484,-13.1850004196167 C19.465999603271484,-13.1850004196167 -2.7899999618530273,-12.845000267028809 -2.7899999618530273,-12.845000267028809 C-2.7899999618530273,-12.845000267028809 -14.069999694824219,-4.385000228881836 -14.069999694824219,-4.385000228881836 C-14.069999694824219,-4.385000228881836 -14.069999694824219,-4.355000019073486 -14.069999694824219,-4.355000019073486 C-14.069999694824219,-4.355000019073486 -19.465999603271484,13.1850004196167 -19.465999603271484,13.1850004196167 C-3.8959999084472656,8.571000099182129 9.630999565124512,-0.7720000147819519 19.465999603271484,-13.1850004196167z"></path></g><g opacity="1" transform="matrix(1,0,0,1,48.034000396728516,139.86599731445312)"><path fill="rgb(14,122,70)" fill-opacity="1" d=" M19.874000549316406,13.345999717712402 C19.874000549316406,13.345999717712402 13.53600025177002,-5.216000080108643 13.53600025177002,-5.216000080108643 C13.53600025177002,-5.216000080108643 1.9859999418258667,-13.345999717712402 1.9859999418258667,-13.345999717712402 C1.9859999418258667,-13.345999717712402 -19.874000549316406,-13.01200008392334 -19.874000549316406,-13.01200008392334 C-9.836000442504883,-0.4749999940395355 3.990000009536743,8.883999824523926 19.874000549316406,13.345999717712402z"></path></g><g opacity="1" transform="matrix(1,0,0,1,22.540000915527344,60.90800094604492)"><path fill="rgb(14,122,70)" fill-opacity="1" d=" M-10.998000144958496,25.722999572753906 C-10.998000144958496,25.722999572753906 7.53000020980835,11.342000007629395 7.53000020980835,11.342000007629395 C7.53000020980835,11.342000007629395 11.460000038146973,-2.2170000076293945 11.460000038146973,-2.2170000076293945 C11.460000038146973,-2.2170000076293945 3.450000047683716,-24.386999130249023 3.450000047683716,-24.386999130249023 C3.450000047683716,-24.386999130249023 1.4830000400543213,-25.722999572753906 1.4830000400543213,-25.722999572753906 C-6.689000129699707,-13.395999908447266 -11.460000038146973,1.3839999437332153 -11.460000038146973,17.283000946044922 C-11.460000038146973,20.135000228881836 -11.29699993133545,22.948999404907227 -10.998000144958496,25.722999572753906z"></path></g><g opacity="1" transform="matrix(1,0,0,1,155.02000427246094,61.27799987792969)"><path fill="rgb(14,122,70)" fill-opacity="1" d=" M-3.809999942779541,-24.2189998626709 C-3.809999942779541,-24.2189998626709 -11.9399995803833,-2.0789999961853027 -11.9399995803833,-2.0789999961853027 C-11.9399995803833,-2.0789999961853027 -8.100000381469727,11.480999946594238 -8.100000381469727,11.480999946594238 C-8.100000381469727,11.480999946594238 10.4399995803833,26.06100082397461 10.4399995803833,26.06100082397461 C10.4399995803833,26.06100082397461 10.791999816894531,26.075000762939453 11.383000373840332,26.097999572753906 C11.737000465393066,23.08300018310547 11.9399995803833,20.020999908447266 11.9399995803833,16.910999298095703 C11.9399995803833,1.0110000371932983 7.168000221252441,-13.769000053405762 -1.00600004196167,-26.097999572753906 C-1.00600004196167,-26.097999572753906 -3.809999942779541,-24.2189998626709 -3.809999942779541,-24.2189998626709z"></path></g><g opacity="1" transform="matrix(1,0,0,1,89.0199966430664,13.65999984741211)"><path fill="rgb(14,122,70)" fill-opacity="1" d=" M26.1299991607666,-0.44999998807907104 C26.1299991607666,-0.44999998807907104 28.572999954223633,-7.980999946594238 28.572999954223633,-7.980999946594238 C19.722999572753906,-11.470999717712402 10.090999603271484,-13.40999984741211 0,-13.40999984741211 C-10.090999603271484,-13.40999984741211 -19.722999572753906,-11.470999717712402 -28.572999954223633,-7.980999946594238 C-28.572999954223633,-7.980999946594238 -26.1299991607666,-0.44999998807907104 -26.1299991607666,-0.44999998807907104 C-26.1299991607666,-0.44999998807907104 -7.050000190734863,13.40999984741211 -7.050000190734863,13.40999984741211 C-7.050000190734863,13.40999984741211 7.050000190734863,13.40999984741211 7.050000190734863,13.40999984741211 C7.050000190734863,13.40999984741211 26.1299991607666,-0.44999998807907104 26.1299991607666,-0.44999998807907104z"></path></g><g opacity="1" transform="matrix(1,0,0,1,94.2699966430664,40.8849983215332)"><path fill="rgb(14,122,70)" fill-opacity="1" d=" M-3,-16.03499984741211 C-3,-16.03499984741211 3,-16.03499984741211 3,-16.03499984741211 C3,-16.03499984741211 3,16.03499984741211 3,16.03499984741211 C3,16.03499984741211 -3,16.03499984741211 -3,16.03499984741211 C-3,16.03499984741211 -3,-16.03499984741211 -3,-16.03499984741211z"></path></g><g opacity="1" transform="matrix(1,0,0,1,83.7699966430664,40.8849983215332)"><path fill="rgb(14,122,70)" fill-opacity="1" d=" M-3,-16.03499984741211 C-3,-16.03499984741211 3,-16.03499984741211 3,-16.03499984741211 C3,-16.03499984741211 3,16.03499984741211 3,16.03499984741211 C3,16.03499984741211 -3,16.03499984741211 -3,16.03499984741211 C-3,16.03499984741211 -3,-16.03499984741211 -3,-16.03499984741211z"></path></g><g opacity="1" transform="matrix(1,0,0,1,47.9739990234375,64.83499908447266)"><path fill="rgb(14,122,70)" fill-opacity="1" d=" M-18.773000717163086,-2.944999933242798 C-18.773000717163086,-2.944999933242798 -16.920000076293945,-8.652000427246094 -16.920000076293945,-8.652000427246094 C-16.920000076293945,-8.652000427246094 18.773000717163086,2.946000099182129 18.773000717163086,2.946000099182129 C18.773000717163086,2.946000099182129 16.920000076293945,8.652000427246094 16.920000076293945,8.652000427246094 C16.920000076293945,8.652000427246094 -18.773000717163086,-2.944999933242798 -18.773000717163086,-2.944999933242798z"></path></g><g opacity="1" transform="matrix(1,0,0,1,45.37799835205078,75.02999877929688)"><path fill="rgb(14,122,70)" fill-opacity="1" d=" M-16.177000045776367,-2.1019999980926514 C-16.177000045776367,-2.1019999980926514 -14.322999954223633,-7.808000087738037 -14.322999954223633,-7.808000087738037 C-14.322999954223633,-7.808000087738037 16.177000045776367,2.1019999980926514 16.177000045776367,2.1019999980926514 C16.177000045776367,2.1019999980926514 14.322999954223633,7.808000087738037 14.322999954223633,7.808000087738037 C14.322999954223633,7.808000087738037 -16.177000045776367,-2.1019999980926514 -16.177000045776367,-2.1019999980926514z"></path></g><g opacity="1" transform="matrix(1,0,0,1,58.428001403808594,116.90799713134766)"><path fill="rgb(14,122,70)" fill-opacity="1" d=" M-13.461999893188477,13.413000106811523 C-13.461999893188477,13.413000106811523 8.609000205993652,-16.94099998474121 8.609000205993652,-16.94099998474121 C8.609000205993652,-16.94099998474121 13.461999893188477,-13.413000106811523 13.461999893188477,-13.413000106811523 C13.461999893188477,-13.413000106811523 -8.609000205993652,16.94099998474121 -8.609000205993652,16.94099998474121 C-8.609000205993652,16.94099998474121 -13.461999893188477,13.413000106811523 -13.461999893188477,13.413000106811523z"></path></g><g opacity="1" transform="matrix(1,0,0,1,67.30500030517578,122.48100280761719)"><path fill="rgb(14,122,70)" fill-opacity="1" d=" M-11.855999946594238,11.204999923706055 C-11.855999946594238,11.204999923706055 7.002999782562256,-14.734000205993652 7.002999782562256,-14.734000205993652 C7.002999782562256,-14.734000205993652 11.855999946594238,-11.204999923706055 11.855999946594238,-11.204999923706055 C11.855999946594238,-11.204999923706055 -7.002999782562256,14.734000205993652 -7.002999782562256,14.734000205993652 C-7.002999782562256,14.734000205993652 -11.855999946594238,11.204999923706055 -11.855999946594238,11.204999923706055z"></path></g><g opacity="1" transform="matrix(1,0,0,1,108.43499755859375,120.28299713134766)"><path fill="rgb(14,122,70)" fill-opacity="1" d=" M-13.456999778747559,-13.418000221252441 C-13.456999778747559,-13.418000221252441 -8.602999687194824,-16.94499969482422 -8.602999687194824,-16.94499969482422 C-8.602999687194824,-16.94499969482422 13.456999778747559,13.418999671936035 13.456999778747559,13.418999671936035 C13.456999778747559,13.418999671936035 8.602999687194824,16.94499969482422 8.602999687194824,16.94499969482422 C8.602999687194824,16.94499969482422 -13.456999778747559,-13.418000221252441 -13.456999778747559,-13.418000221252441z"></path></g><g opacity="1" transform="matrix(1,0,0,1,118.12000274658203,115.76499938964844)"><path fill="rgb(14,122,70)" fill-opacity="1" d=" M-12.654999732971191,-12.314000129699707 C-12.654999732971191,-12.314000129699707 -7.801000118255615,-15.84000015258789 -7.801000118255615,-15.84000015258789 C-7.801000118255615,-15.84000015258789 12.654999732971191,12.312999725341797 12.654999732971191,12.312999725341797 C12.654999732971191,12.312999725341797 7.801000118255615,15.84000015258789 7.801000118255615,15.84000015258789 C7.801000118255615,15.84000015258789 -12.654999732971191,-12.314000129699707 -12.654999732971191,-12.314000129699707z"></path></g><g opacity="1" transform="matrix(1,0,0,1,135.02499389648438,74.2020034790039)"><path fill="rgb(14,122,70)" fill-opacity="1" d=" M-18.774999618530273,2.936000108718872 C-18.774999618530273,2.936000108718872 16.923999786376953,-8.642999649047852 16.923999786376953,-8.642999649047852 C16.923999786376953,-8.642999649047852 18.774999618530273,-2.934999942779541 18.774999618530273,-2.934999942779541 C18.774999618530273,-2.934999942779541 -16.923999786376953,8.642999649047852 -16.923999786376953,8.642999649047852 C-16.923999786376953,8.642999649047852 -18.774999618530273,2.936000108718872 -18.774999618530273,2.936000108718872z"></path></g><g opacity="1" transform="matrix(1,0,0,1,130.72000122070312,64.54000091552734)"><path fill="rgb(14,122,70)" fill-opacity="1" d=" M-17.905000686645508,2.6540000438690186 C-17.905000686645508,2.6540000438690186 16.05299949645996,-8.361000061035156 16.05299949645996,-8.361000061035156 C16.05299949645996,-8.361000061035156 17.905000686645508,-2.6540000438690186 17.905000686645508,-2.6540000438690186 C17.905000686645508,-2.6540000438690186 -16.054000854492188,8.361000061035156 -16.054000854492188,8.361000061035156 C-16.054000854492188,8.361000061035156 -17.905000686645508,2.6540000438690186 -17.905000686645508,2.6540000438690186z"></path></g></g><g style="display: block;" transform="matrix(1,0,0,1,6.980003356933594,17.80999755859375)" opacity="1"><g opacity="1" transform="matrix(1,0,0,1,65.00499725341797,88.56999969482422)"><path fill="rgb(14,122,70)" fill-opacity="1" d=" M-20.834999084472656,15.6899995803833 C-41.595001220703125,-20.25 -34.39500045776367,-52.650001525878906 -13.005000114440918,-78.5999984741211 C-13.604999542236328,-78.2699966430664 -14.234999656677246,-77.97000122070312 -14.835000038146973,-77.61000061035156 C-52.005001068115234,-56.130001068115234 -64.75499725341797,-8.550000190734863 -43.275001525878906,28.649999618530273 C-21.795000076293945,65.8499984741211 25.78499984741211,78.5999984741211 62.98500061035156,57.119998931884766 C63.584999084472656,56.7599983215332 64.15499877929688,56.400001525878906 64.75499725341797,56.040000915527344 C31.575000762939453,61.59000015258789 -1.815000057220459,48.630001068115234 -20.834999084472656,15.6899995803833z"></path></g></g></g></svg>