<svg xmlns="http://www.w3.org/2000/svg" xmlns:xlink="http://www.w3.org/1999/xlink" viewBox="0 0 192 192" width="192" height="192" preserveAspectRatio="xMidYMid meet" style="width: 100%; height: 100%; transform: translate3d(0px, 0px, 0px); content-visibility: visible;"><defs><clipPath id="__lottie_element_176"><rect width="192" height="192" x="0" y="0"></rect></clipPath></defs><g clip-path="url(#__lottie_element_176)"><g style="display: block;" transform="matrix(1,0,0,1,6.980001449584961,17.810001373291016)" opacity="1"><g opacity="1" transform="matrix(1,0,0,1,89.0199966430664,78.04000091552734)"><path fill="rgb(184,135,202)" fill-opacity="1" d=" M0,-77.79000091552734 C42.96200180053711,-77.79000091552734 77.79000091552734,-42.96200180053711 77.79000091552734,0 C77.79000091552734,42.96200180053711 42.96200180053711,77.79000091552734 0,77.79000091552734 C-42.96200180053711,77.79000091552734 -77.79000091552734,42.96200180053711 -77.79000091552734,0 C-77.79000091552734,-42.96200180053711 -42.96200180053711,-77.79000091552734 0,-77.79000091552734z"></path></g><g opacity="1" transform="matrix(1,0,0,1,89.14299774169922,71.19999694824219)"><path fill="rgb(109,73,148)" fill-opacity="1" d=" M-77.52899932861328,-0.8880000114440918 C-74.46099853515625,0.8389999866485596 -67.69999694824219,2.4130001068115234 -52.95199966430664,3.809999942779541 C-37.143001556396484,5.309999942779541 -16.17300033569336,6.119999885559082 6.117000102996826,6.119999885559082 C28.437000274658203,6.119999885559082 49.40800094604492,5.309999942779541 65.18800354003906,3.809999942779541 C70.15799713134766,3.3450000286102295 74.20800018310547,2.8580000400543213 77.52899932861328,2.3489999771118164 C77.41400146484375,0.3330000042915344 77.20999908447266,-1.659999966621399 76.94499969482422,-3.632999897003174 C64.06300354003906,-1.6660000085830688 39.444000244140625,0.11999999731779099 6.117000102996826,0.11999999731779099 C-41.40299987792969,0.11999999731779099 -71.25299835205078,-3.509999990463257 -74.5530014038086,-6.119999885559082 C-74.43299865722656,-6 -74.01200103759766,-5.519999980926514 -74.01200103759766,-4.710000038146973 C-74.01200103759766,-4.710000038146973 -77.05500030517578,-4.710000038146973 -77.05500030517578,-4.710000038146973 C-77.24299621582031,-3.444999933242798 -77.4020004272461,-2.171999931335449 -77.52899932861328,-0.8880000114440918z"></path></g><g opacity="1" transform="matrix(1,0,0,1,88.98200225830078,86.7699966430664)"><path fill="rgb(109,73,148)" fill-opacity="1" d=" M6.2779998779296875,0.11999999731779099 C-41.242000579833984,0.11999999731779099 -71.09300231933594,-3.509999990463257 -74.39299774169922,-6.119999885559082 C-74.27300262451172,-6 -73.85199737548828,-5.519999980926514 -73.85199737548828,-4.710000038146973 C-73.85199737548828,-4.710000038146973 -77.6500015258789,-4.710000038146973 -77.6500015258789,-4.710000038146973 C-77.58499908447266,-3.4260001182556152 -77.48600006103516,-2.1500000953674316 -77.35900115966797,-0.8830000162124634 C-74.28800201416016,0.8420000076293945 -67.5260009765625,2.4140000343322754 -52.79199981689453,3.809999942779541 C-36.981998443603516,5.309999942779541 -16.011999130249023,6.119999885559082 6.2779998779296875,6.119999885559082 C28.597999572753906,6.119999885559082 49.56800079345703,5.309999942779541 65.3479995727539,3.809999942779541 C69.98300170898438,3.377000093460083 73.82499694824219,2.9230000972747803 77.01599884033203,2.4519999027252197 C77.30899810791016,0.42100000381469727 77.51799774169922,-1.6369999647140503 77.6500015258789,-3.7160000801086426 C64.92400360107422,-1.7170000076293945 40.07699966430664,0.11999999731779099 6.2779998779296875,0.11999999731779099z"></path></g><g opacity="1" transform="matrix(1,0,0,1,123.30599975585938,78.04000091552734)"><path fill="rgb(109,73,148)" fill-opacity="1" d=" M14.52400016784668,0 C14.52400016784668,34.04800033569336 0.11699999868869781,63.4109992980957 -20.52400016784668,76.552001953125 C-15.58899974822998,75.66999816894531 -10.817000389099121,74.3270034790039 -6.250999927520752,72.56199645996094 C9.970000267028809,56.191001892089844 20.52400016784668,29.76799964904785 20.52400016784668,0 C20.52400016784668,-29.76799964904785 9.970000267028809,-56.191001892089844 -6.250999927520752,-72.56199645996094 C-10.817000389099121,-74.3270034790039 -15.58899974822998,-75.66999816894531 -20.52400016784668,-76.552001953125 C0.11699999868869781,-63.4109992980957 14.52400016784668,-34.04800033569336 14.52400016784668,0z"></path></g><g opacity="1" transform="matrix(1,0,0,1,101.19400024414062,29.988000869750977)"><path fill="rgb(109,73,148)" fill-opacity="1" d=" M-51.81100082397461,-18.878999710083008 C-31.409000396728516,-14.116999626159668 -14.42300033569336,-2.5899999141693115 0.12600000202655792,7.2820000648498535 C12.845999717712402,15.892000198364258 23.16699981689453,22.91200065612793 32.375999450683594,22.91200065612793 C33.486000061035156,22.91200065612793 34.566001892089844,22.82200050354004 35.61600112915039,22.61199951171875 C45.77000045776367,20.635000228881836 50.11399841308594,12.958999633789062 51.81100082397461,3.8269999027252197 C50.189998626708984,1.4869999885559082 48.439998626708984,-0.7559999823570251 46.57899856567383,-2.9000000953674316 C45.89500045776367,7.366000175476074 42.96900177001953,15.092000007629395 34.47600173950195,16.73200035095215 C26.88599967956543,18.23200035095215 16.055999755859375,10.85200023651123 3.5160000324249268,2.3320000171661377 C-9.35200023651123,-6.4079999923706055 -25.16200065612793,-17.128999710083008 -44.03099822998047,-22.91200065612793 C-46.707000732421875,-21.70800018310547 -49.305999755859375,-20.365999221801758 -51.81100082397461,-18.878999710083008z"></path></g><g opacity="1" transform="matrix(1,0,0,1,106.572998046875,132.70399475097656)"><path fill="rgb(109,73,148)" fill-opacity="1" d=" M30.207000732421875,-19.084999084472656 C20.187000274658203,-21.065000534057617 8.967000007629395,-13.413999557495117 -5.252999782562256,-3.753999948501587 C-16.61199951171875,3.9639999866485596 -29.472000122070312,12.6899995803833 -44.29499816894531,18.406999588012695 C-41.38199996948242,19.474000930786133 -38.37900161743164,20.347999572753906 -35.31399917602539,21.06399917602539 C-22.523000717163086,15.223999977111816 -11.388999938964844,7.664000034332275 -1.8630000352859497,1.1950000524520874 C10.677000045776367,-7.324999809265137 21.506999969482422,-14.673999786376953 29.097000122070312,-13.204000473022461 C34.98699951171875,-12.0649995803833 38.18899917602539,-7.979000091552734 39.82899856567383,-2.1500000953674316 C41.39699935913086,-3.861999988555908 42.882999420166016,-5.651000022888184 44.29499816894531,-7.499000072479248 C41.83000183105469,-13.262999534606934 37.534000396728516,-17.659000396728516 30.207000732421875,-19.084999084472656z"></path></g><g opacity="1" transform="matrix(1,0,0,1,65.00499725341797,88.56999969482422)"><path fill="rgb(109,73,148)" fill-opacity="1" d=" M-20.834999084472656,15.6899995803833 C-41.595001220703125,-20.25 -34.39500045776367,-52.650001525878906 -13.005000114440918,-78.5999984741211 C-13.604999542236328,-78.2699966430664 -14.234999656677246,-77.97000122070312 -14.835000038146973,-77.61000061035156 C-52.005001068115234,-56.130001068115234 -64.75499725341797,-8.550000190734863 -43.275001525878906,28.649999618530273 C-21.795000076293945,65.8499984741211 25.78499984741211,78.5999984741211 62.98500061035156,57.119998931884766 C63.584999084472656,56.7599983215332 64.15499877929688,56.400001525878906 64.75499725341797,56.040000915527344 C31.575000762939453,61.59000015258789 -1.815000057220459,48.630001068115234 -20.834999084472656,15.6899995803833z"></path></g></g></g></svg>