<svg xmlns="http://www.w3.org/2000/svg" xmlns:xlink="http://www.w3.org/1999/xlink" viewBox="0 0 320 320" width="320" height="320" preserveAspectRatio="xMidYMid meet" style="width: 100%; height: 100%; transform: translate3d(0px, 0px, 0px); content-visibility: visible;"><defs><clipPath id="__lottie_element_163"><rect width="320" height="320" x="0" y="0"></rect></clipPath></defs><g clip-path="url(#__lottie_element_163)"><g style="display: block;" transform="matrix(1,0,0,1,19.75,67.25)" opacity="1"><g opacity="1" transform="matrix(1,0,0,1,120.43499755859375,94.06500244140625)"><path fill="rgb(249,3,8)" fill-opacity="1" d=" M54.73500061035156,-93.81500244140625 C24.46500015258789,-93.81500244140625 -0.014999999664723873,-61.29499816894531 -0.014999999664723873,-31.145000457763672 C-0.014999999664723873,-61.30500030517578 -24.475000381469727,-93.81500244140625 -54.744998931884766,-93.81500244140625 C-85.01499938964844,-93.81500244140625 -112.21499633789062,-69.34500122070312 -109.65499877929688,-31.145000457763672 C-109.32499694824219,-26.03499984741211 -108.95500183105469,-21.065000534057617 -107.61499786376953,-16.364999771118164 C-103.66500091552734,-2.0250000953674316 -83.59500122070312,52.654998779296875 -0.014999999664723873,93.81500244140625 C83.59500122070312,52.665000915527344 103.66500091552734,-2.015000104904175 107.61499786376953,-16.364999771118164 C108.93499755859375,-21.065000534057617 109.31500244140625,-26.03499984741211 109.65499877929688,-31.145000457763672 C112.21499633789062,-69.34500122070312 85.01499938964844,-93.81500244140625 54.744998931884766,-93.81500244140625 C54.744998931884766,-93.81500244140625 54.73500061035156,-93.81500244140625 54.73500061035156,-93.81500244140625z"></path></g><g opacity="1" transform="matrix(1,0,0,1,85.4749984741211,9.859999656677246)"><path fill="rgb(249,3,8)" fill-opacity="1" d=" M-19.795000076293945,-9.609999656677246 C-19.795000076293945,-9.609999656677246 20.204999923706055,-9.609999656677246 20.204999923706055,-9.609999656677246 C20.204999923706055,-9.609999656677246 20.204999923706055,9.609999656677246 20.204999923706055,9.609999656677246 C20.204999923706055,9.609999656677246 -20.204999923706055,9.609999656677246 -20.204999923706055,9.609999656677246 C-20.204999923706055,9.609999656677246 -19.795000076293945,-9.609999656677246 -19.795000076293945,-9.609999656677246z"></path></g><g opacity="1" transform="matrix(1,0,0,1,195.1699981689453,9.859999656677246)"><path fill="rgb(249,3,8)" fill-opacity="1" d=" M-20,-9.609999656677246 C-20,-9.609999656677246 20,-9.609999656677246 20,-9.609999656677246 C20,-9.609999656677246 20,9.609999656677246 20,9.609999656677246 C20,9.609999656677246 -20,9.609999656677246 -20,9.609999656677246 C-20,9.609999656677246 -20,-9.609999656677246 -20,-9.609999656677246z"></path></g><g opacity="1" transform="matrix(1,0,0,1,139.48500061035156,175.55999755859375)"><path fill="rgb(249,3,8)" fill-opacity="1" d=" M-19.065000534057617,12.319999694824219 C-19.065000534057617,12.319999694824219 20.934999465942383,12.319999694824219 20.934999465942383,12.319999694824219 C20.934999465942383,12.319999694824219 20.934999465942383,-12.319999694824219 20.934999465942383,-12.319999694824219 C20.934999465942383,-12.319999694824219 -20.934999465942383,-12.319999694824219 -20.934999465942383,-12.319999694824219 C-20.934999465942383,-12.319999694824219 -19.065000534057617,12.319999694824219 -19.065000534057617,12.319999694824219z"></path></g><g opacity="1" transform="matrix(1,0,0,1,176.52999877929688,76.5)"><path fill="rgb(249,3,8)" fill-opacity="1" d=" M-35.689998626708984,76.25 C47.91999816894531,35.099998474121094 47.560001373291016,15.550000190734863 51.5099983215332,1.2000000476837158 C52.83000183105469,-3.5 53.209999084472656,-8.470000267028809 53.54999923706055,-13.579999923706055 C56.11000061035156,-51.779998779296875 28.90999984741211,-76.25 -1.3600000143051147,-76.25 C-31.6299991607666,-76.25 -56.11000061035156,-43.72999954223633 -56.11000061035156,-13.579999923706055 C-56.11000061035156,-13.579999923706055 -35.689998626708984,76.25 -35.689998626708984,76.25z"></path></g><g opacity="1" transform="matrix(1,0,0,1,160.43499755859375,94.06500244140625)"><path fill="rgb(242,199,208)" fill-opacity="1" d=" M54.73500061035156,-93.81500244140625 C24.46500015258789,-93.81500244140625 -0.014999999664723873,-61.29499816894531 -0.014999999664723873,-31.145000457763672 C-0.014999999664723873,-61.30500030517578 -24.475000381469727,-93.81500244140625 -54.744998931884766,-93.81500244140625 C-85.01499938964844,-93.81500244140625 -112.21499633789062,-69.34500122070312 -109.65499877929688,-31.145000457763672 C-109.32499694824219,-26.03499984741211 -108.95500183105469,-21.065000534057617 -107.61499786376953,-16.364999771118164 C-103.66500091552734,-2.0250000953674316 -83.59500122070312,52.654998779296875 -0.014999999664723873,93.81500244140625 C83.59500122070312,52.665000915527344 103.66500091552734,-2.015000104904175 107.61499786376953,-16.364999771118164 C108.93499755859375,-21.065000534057617 109.31500244140625,-26.03499984741211 109.65499877929688,-31.145000457763672 C112.21499633789062,-69.34500122070312 85.01499938964844,-93.81500244140625 54.744998931884766,-93.81500244140625 C54.744998931884766,-93.81500244140625 54.73500061035156,-93.81500244140625 54.73500061035156,-93.81500244140625z"></path></g><g opacity="1" transform="matrix(1,0,0,1,43.749000549316406,104.26300048828125)"><path fill="rgb(249,3,8)" fill-opacity="1" d=" M4.872000217437744,1.7170000076293945 C4.872000217437744,1.7170000076293945 5.26200008392334,-1.7170000076293945 5.26200008392334,-1.7170000076293945 C1.5399999618530273,-1.2699999809265137 -1.975000023841858,-0.6420000195503235 -5.26200008392334,0.13199999928474426 C-2.0360000133514404,0.7839999794960022 1.3459999561309814,1.315999984741211 4.872000217437744,1.7170000076293945z"></path></g><g opacity="1" transform="matrix(1,0,0,1,270.2049865722656,56.34400177001953)"><path fill="rgb(249,3,8)" fill-opacity="1" d=" M-0.004999999888241291,-0.004000000189989805 C-0.0020000000949949026,-0.0010000000474974513 0.0020000000949949026,0.0020000000949949026 0.004999999888241291,0.004000000189989805 C0.004999999888241291,0.0020000000949949026 0.004999999888241291,-0.0010000000474974513 0.004999999888241291,-0.004000000189989805 C0.004999999888241291,-0.004000000189989805 -0.004999999888241291,-0.004000000189989805 -0.004999999888241291,-0.004000000189989805z"></path></g><g opacity="1" transform="matrix(1,0,0,1,35.35100173950195,128.14700317382812)"><path fill="rgb(249,3,8)" fill-opacity="1" d=" M-25.091999053955078,-3.88700008392334 C-25.091999053955078,-9.557000160217285 -19.0049991607666,-15.571999549865723 -8.673999786376953,-19.954999923706055 C-10.538000106811523,-22.985000610351562 -12.175999641418457,-25.8799991607666 -13.61299991607666,-28.613000869750977 C-26.827999114990234,-22.70599937438965 -35.09199905395508,-13.902000427246094 -35.09199905395508,-3.88700008392334 C-35.09199905395508,13.562999725341797 -7.802000045776367,28.613000869750977 27.027999877929688,28.613000869750977 C29.740999221801758,28.613000869750977 32.428001403808594,28.538000106811523 35.090999603271484,28.40399932861328 C30.97800064086914,25.117000579833984 27.145000457763672,21.827999114990234 23.58099937438965,18.55699920654297 C-5.269000053405762,17.709999084472656 -25.091999053955078,6.348999977111816 -25.091999053955078,-3.88700008392334z"></path></g><g opacity="1" transform="matrix(1,0,0,1,10.92300033569336,77.65499877929688)"><path fill="rgb(249,3,8)" fill-opacity="1" d=" M-0.6729999780654907,-3.4049999713897705 C-0.6729999780654907,-4.822999954223633 -0.289000004529953,-6.26200008392334 0.4429999887943268,-7.691999912261963 C0.17800000309944153,-10.00100040435791 0.010999999940395355,-12.35200023651123 -0.14300000667572021,-14.734999656677246 C-0.30000001192092896,-17.07699966430664 -0.34200000762939453,-19.365999221801758 -0.2809999883174896,-21.601999282836914 C-6.861000061035156,-16.445999145507812 -10.67300033569336,-10.204999923706055 -10.67300033569336,-3.4049999713897705 C-10.67300033569336,7.142000198364258 -2.6740000247955322,15.842000007629395 10.67300033569336,21.601999282836914 C7.191999912261963,14.940999984741211 4.9039998054504395,9.262999534606934 3.438999891281128,5 C0.7990000247955322,2.3480000495910645 -0.6729999780654907,-0.5059999823570251 -0.6729999780654907,-3.4049999713897705z"></path></g><g opacity="1" transform="matrix(1,0,0,1,190.03199768066406,76.68199920654297)"><path fill="rgb(249,3,8)" fill-opacity="1" d=" M-44.04199981689453,3.828000068664551 C-24.091999053955078,16.72800064086914 -3.4719998836517334,30.06800079345703 28.08799934387207,30.06800079345703 C44.1879997253418,30.06800079345703 58.63800048828125,26.988000869750977 69.56800079345703,21.908000946044922 C82.26799774169922,15.998000144958496 90.20800018310547,7.368000030517578 90.20800018310547,-2.431999921798706 C90.20800018310547,-9.097999572753906 86.52200317382812,-15.234999656677246 80.1780014038086,-20.333999633789062 C80.22799682617188,-18.18600082397461 80.197998046875,-16.009000778198242 80.0479965209961,-13.76200008392334 C79.87799835205078,-11.152000427246094 79.68800354003906,-8.581999778747559 79.36799621582031,-6.072000026702881 C79.89800262451172,-4.8520002365112305 80.20800018310547,-3.631999969482422 80.20800018310547,-2.431999921798706 C80.20800018310547,0.08799999952316284 78.96800231933594,2.677999973297119 76.72799682617188,5.168000221252441 C69.50800323486328,13.168000221252441 51.52799987792969,20.06800079345703 28.097999572753906,20.06800079345703 C-0.5120000243186951,20.06800079345703 -19.011999130249023,8.097999572753906 -38.60200119018555,-4.561999797821045 C-53.1510009765625,-13.968000411987305 -68.98500061035156,-24.204999923706055 -90.20800018310547,-30.06800079345703 C-90.20800018310547,-30.06800079345703 -90.20800018310547,-19.690000534057617 -90.20800018310547,-19.690000534057617 C-71.88899993896484,-14.175999641418457 -57.81399917602539,-5.080999851226807 -44.04199981689453,3.828000068664551z"></path></g><g opacity="1" transform="matrix(1,0,0,1,190.04200744628906,126.69100189208984)"><path fill="rgb(249,3,8)" fill-opacity="1" d=" M69.01799774169922,-27.0310001373291 C69.01799774169922,-27.0310001373291 69.00800323486328,-27.041000366210938 69.00800323486328,-27.041000366210938 C67.56800079345703,-24.301000595092773 65.9280014038086,-21.400999069213867 64.05799865722656,-18.361000061035156 C74.197998046875,-13.991000175476074 80.20800018310547,-8.050999641418457 80.20800018310547,-2.430999994277954 C80.20800018310547,7.758999824523926 60.55799865722656,19.038999557495117 31.92799949645996,19.979000091552734 C30.658000946044922,20.018999099731445 29.398000717163086,20.069000244140625 28.097999572753906,20.069000244140625 C-0.5120000243186951,20.069000244140625 -19.011999130249023,8.098999977111816 -38.60200119018555,-4.560999870300293 C-53.15299987792969,-13.968999862670898 -68.98999786376953,-24.20800018310547 -90.21800231933594,-30.069000244140625 C-90.21800231933594,-30.069000244140625 -90.21800231933594,-19.684999465942383 -90.21800231933594,-19.684999465942383 C-71.89099884033203,-14.175000190734863 -57.805999755859375,-5.080999851226807 -44.03200149536133,3.8289999961853027 C-25.742000579833984,15.659000396728516 -6.861999988555908,27.819000244140625 20.47800064086914,29.768999099731445 C22.95800018310547,29.948999404907227 25.47800064086914,30.069000244140625 28.107999801635742,30.069000244140625 C62.9379997253418,30.069000244140625 90.21800231933594,15.788999557495117 90.21800231933594,-2.430999994277954 C90.21800231933594,-12.371000289916992 82.05799865722656,-21.121000289916992 69.01799774169922,-27.0310001373291z"></path></g><g opacity="1" transform="matrix(1,0,0,1,21.783000946044922,99.39600372314453)"><path fill="rgb(249,3,8)" fill-opacity="1" d=" M-0.18799999356269836,-0.13899999856948853 C-0.14000000059604645,-0.04600000008940697 -0.09300000220537186,0.04600000008940697 -0.04399999976158142,0.13899999856948853 C0.03500000014901161,0.10400000214576721 0.10899999737739563,0.06599999964237213 0.18799999356269836,0.03099999949336052 C0.05900000035762787,-0.024000000208616257 -0.05999999865889549,-0.08399999886751175 -0.18799999356269836,-0.13899999856948853z"></path></g><g opacity="1" transform="matrix(1,0,0,1,30.113000869750977,103.80899810791016)"><path fill="rgb(249,3,8)" fill-opacity="1" d=" M8.37399959564209,0.5870000123977661 C2.253999948501587,-0.6489999890327454 -3.2890000343322754,-2.3239998817443848 -8.140999794006348,-4.382999897003174 C-8.220000267028809,-4.3480000495910645 -8.295000076293945,-4.309999942779541 -8.37399959564209,-4.27400016784668 C-6.938000202178955,-1.5410000085830688 -5.301000118255615,1.3530000448226929 -3.437000036239624,4.382999897003174 C0.041999999433755875,2.9070000648498535 4.001999855041504,1.6169999837875366 8.37399959564209,0.5870000123977661z"></path></g><g opacity="1" transform="matrix(1,0,0,1,74.63500213623047,150.46499633789062)"><path fill="rgb(249,3,8)" fill-opacity="1" d=" M13.824000358581543,-6.085000038146973 C5.584000110626221,-4.505000114440918 -3.196000099182129,-3.7060000896453857 -12.255999565124512,-3.7060000896453857 C-13.420999526977539,-3.7060000896453857 -14.565999984741211,-3.7290000915527344 -15.704000473022461,-3.76200008392334 C-12.138999938964844,-0.4909999966621399 -8.305999755859375,2.7990000247955322 -4.192999839782715,6.085999965667725 C2.6559998989105225,5.739999771118164 9.324000358581543,4.958000183105469 15.704000473022461,3.7339999675750732 C15.704000473022461,3.7339999675750732 13.824000358581543,-6.085000038146973 13.824000358581543,-6.085000038146973z"></path></g><g opacity="1" transform="matrix(1,0,0,1,69.2699966430664,99.38300323486328)"><path fill="rgb(249,3,8)" fill-opacity="1" d=" M-20.260000228881836,3.1630001068115234 C-16.04800033569336,2.6570000648498535 -11.579000473022461,2.377000093460083 -6.890999794006348,2.377000093460083 C-6.690999984741211,2.377000093460083 -6.511000156402588,2.38700008392334 -6.321000099182129,2.38700008392334 C7.9079999923706055,2.438999891281128 19.940000534057617,4.432000160217285 30.55299949645996,7.623000144958496 C30.55299949645996,7.623000144958496 30.55299949645996,-2.760999917984009 30.55299949645996,-2.760999917984009 C19.672000885009766,-5.764999866485596 7.379000186920166,-7.623000144958496 -6.890999794006348,-7.623000144958496 C-8.361000061035156,-7.623000144958496 -9.800999641418457,-7.563000202178955 -11.25100040435791,-7.513000011444092 C-18.073999404907227,-7.275000095367432 -24.555999755859375,-6.480000019073486 -30.554000854492188,-5.2230000495910645 C-27.076000213623047,-4.414999961853027 -23.381999969482422,-3.7720000743865967 -19.520999908447266,-3.3329999446868896 C-19.520999908447266,-3.3329999446868896 -20.260000228881836,3.1630001068115234 -20.260000228881836,3.1630001068115234z"></path></g><g opacity="1" transform="matrix(1,0,0,1,55.20199966430664,55.85599899291992)"><path fill="rgb(249,3,8)" fill-opacity="1" d=" M-44.42300033569336,7.063000202178955 C-44.26900100708008,9.446000099182129 -44.10200119018555,11.79800033569336 -43.83700180053711,14.107000350952148 C-39.78900146484375,6.198999881744385 -24.98900032043457,-1.4179999828338623 -4.291999816894531,-3.5269999504089355 C-0.6420000195503235,-3.8970000743865967 3.177999973297119,-4.10699987411499 7.1579999923706055,-4.10699987411499 C21.645999908447266,-4.10699987411499 33.86399841308594,-2.1010000705718994 44.62200164794922,1.1360000371932983 C44.62200164794922,1.1360000371932983 44.62200164794922,-9.243000030517578 44.62200164794922,-9.243000030517578 C33.73899841308594,-12.24899959564209 21.44099998474121,-14.107000350952148 7.166999816894531,-14.107000350952148 C3.796999931335449,-14.107000350952148 0.527999997138977,-13.937000274658203 -2.681999921798706,-13.677000045776367 C-20.275999069213867,-12.262999534606934 -35.21500015258789,-7.129000186920166 -44.56100082397461,0.19599999487400055 C-44.62200164794922,2.431999921798706 -44.58000183105469,4.7210001945495605 -44.42300033569336,7.063000202178955z"></path></g><g opacity="1" transform="matrix(1,0,0,1,26.538999557495117,91.04100036621094)"><path fill="rgb(249,3,8)" fill-opacity="1" d=" M12.178000450134277,3.11899995803833 C1.3300000429153442,0.6000000238418579 -7.369999885559082,-3.556999921798706 -12.178000450134277,-8.38599967956543 C-10.713000297546387,-4.123000144958496 -8.425999641418457,1.555999994277954 -4.945000171661377,8.217000007629395 C-4.816999912261963,8.272000312805176 -4.697000026702881,8.331000328063965 -4.567999839782715,8.38599967956543 C0.3840000033378601,6.195000171661377 6.019999980926514,4.409999847412109 12.178000450134277,3.11899995803833z"></path></g><g opacity="1" transform="matrix(1,0,0,1,35.861000061035156,99.27799987792969)"><path fill="rgb(249,3,8)" fill-opacity="1" d=" M2.625999927520752,5.118000030517578 C5.9120001792907715,4.343999862670898 9.428000450134277,3.7149999141693115 13.149999618530273,3.2669999599456787 C13.149999618530273,3.2669999599456787 13.890000343322754,-3.2279999256134033 13.890000343322754,-3.2279999256134033 C10.027999877929688,-3.6670000553131104 6.334000110626221,-4.310999870300293 2.8559999465942383,-5.118000030517578 C-3.302000045776367,-3.828000068664551 -8.937999725341797,-2.0420000553131104 -13.888999938964844,0.14800000190734863 C-9.036999702453613,2.2070000171661377 -3.49399995803833,3.881999969482422 2.625999927520752,5.118000030517578z"></path></g></g></g></svg>