<svg xmlns="http://www.w3.org/2000/svg" width="27" height="26" fill="none" viewBox="0 0 27 26" class="global-nav__also-from-icon"><path fill="#EF7C84" d="M12.101 6.986c-1.351-.138-2.79-.103-4.01.565-1.272.696-2.144 2.056-2.6 3.401a7.1 7.1 0 0 0-.376 2.169c-.013.828.157 1.636.337 2.44.176.783.35 1.576.313 2.384-.016.36-.075.734-.238 1.059-.155.31-.427.482-.713.66-.354.219-.66.492-.99.746q-.51.394-1.056.734c-.743.459-1.538.82-2.379 1.058-.243.069-.14.449.105.38 1.491-.423 2.814-1.228 4.003-2.209.264-.218.558-.378.835-.577a1.7 1.7 0 0 0 .617-.779c.272-.675.244-1.447.152-2.155-.112-.848-.356-1.668-.497-2.51a6.7 6.7 0 0 1 .004-2.277c.253-1.417.966-2.877 2.1-3.796 1.228-.998 2.889-1.054 4.393-.9.252.026.25-.368 0-.393"></path><path fill="#EF7C84" d="M5.644 20.138a.874.874 0 1 0 .18-1.74.874.874 0 0 0-.18 1.74"></path><path fill="#EF7C84" d="M5.71 19.747a9.5 9.5 0 0 1-1.757 5.727c-.147.207.194.404.34.199a9.87 9.87 0 0 0 1.81-5.926c-.005-.253-.399-.254-.393 0"></path><path fill="#EF7C84" d="M5.586 19.457a7.32 7.32 0 0 1-3.059 5.315c-.206.144-.01.486.199.34a7.75 7.75 0 0 0 2.986-4.186q.205-.722.267-1.47c.021-.251-.372-.25-.393 0"></path><path fill="#EF7C84" d="M5.312 19.445C4.263 21.2 2.953 23.322.716 23.587c-.248.03-.251.423 0 .393 2.404-.285 3.8-2.436 4.936-4.336.13-.218-.21-.416-.34-.199"></path><path fill="#EF7C84" d="M5.397 19.6a7.04 7.04 0 0 1-3.035 4.348 6.7 6.7 0 0 1-1.391.688c-.237.085-.135.465.104.38a7.44 7.44 0 0 0 4.169-3.772 7.2 7.2 0 0 0 .532-1.54c.055-.247-.324-.352-.379-.105"></path><path fill="#EF7C84" d="M5.397 20.002c.301 1.077.036 2.227-.51 3.18-.56.977-1.382 1.766-2.231 2.49-.193.165.086.441.278.278.901-.769 1.773-1.617 2.347-2.666.56-1.024.815-2.245.496-3.387-.068-.243-.448-.14-.38.105"></path><path fill="#EF7C84" d="M5.3 19.443a10.64 10.64 0 0 1-4.388 3.368c-.23.095-.13.476.105.38a11.13 11.13 0 0 0 4.623-3.55c.154-.2-.188-.397-.34-.198"></path><path fill="#0A2E65" d="M5.644 20.138a.874.874 0 1 0 .18-1.74.874.874 0 0 0-.18 1.74" opacity=".3"></path><path fill="#3E49AF" d="M.442 16.463 0 15.467 8.496 0l17.488 1.009.322.867L.62 16.463"></path><path fill="#fff" d="M.442 16.463 0 15.467 8.496 0l17.488 1.009.322.867L.62 16.463" opacity=".1"></path><path fill="#3E49AF" d="M.221 16.463 8.974 1.01l17.111.867-8.358 15.456z"></path><path fill="#0A2E65" d="M.221 16.463 8.974 1.01l17.111.867-8.358 15.456z" opacity=".3"></path><path fill="#3E49AF" d="M15.922 13.692c3.997-2.69 6.255-6.33 5.044-8.129-1.21-1.799-5.432-1.076-9.429 1.615s-6.255 6.33-5.044 8.128 5.433 1.076 9.43-1.614"></path><path fill="#3E49AF" d="m6.271 14.849 3.053 4.811 14.848-9.434-3.451-4.955z"></path><path fill="#EF7C84" d="M14.648 11.663c3.646-2.454 7.678-3.008 9.275-1.82 0 0-.5-.7-.616-.873-1.211-1.799-5.31-1.04-9.344 1.675-4.034 2.716-6.362 6.41-5.15 8.208.116.173.511.807.511.807-.5-1.926 1.679-5.543 5.324-7.997"></path><path fill="#3E49AF" d="M18.914 18.156c4.034-2.715 6.323-6.375 5.112-8.174s-5.463-1.056-9.497 1.66-6.323 6.375-5.112 8.174c1.211 1.8 5.463 1.056 9.497-1.66"></path><path fill="#0A2E65" d="M11.837 20.16c-.647 0-1.501-.121-1.89-.7-.431-.639-.212-1.75.6-3.049.919-1.47 2.46-2.976 4.338-4.24 2.356-1.586 4.869-2.533 6.721-2.533.648 0 1.501.122 1.891.7.43.64.211 1.75-.6 3.05-.92 1.47-2.46 2.975-4.339 4.24-2.356 1.586-4.868 2.532-6.721 2.532" opacity=".5"></path><path fill="#fff" d="M11.506 15.987c0-.143-3.782 4.072 1.053 3.76l2.202-.479s-3.255-.935-3.255-3.28" opacity=".1"></path></svg>