<svg xmlns="http://www.w3.org/2000/svg" width="26" height="26" fill="none" viewBox="0 0 26 26" class="global-nav__also-from-icon"><path fill="#58CC58" d="M22.254 5.897c.013-1.446-.933-2.892-2.836-3.988-3.77-2.177-9.874-2.177-13.614 0-1.866 1.084-2.797 2.507-2.796 3.93v-.017L3 8.812c0 .903.372 1.807 1.124 2.631l1.698 10.075c.006 1.008.677 2.018 2.012 2.789 2.663 1.536 6.97 1.536 9.622 0 1.323-.77 1.981-1.777 1.976-2.785l1.696-10.064q.086-.094.165-.188c.027-.033.063-.063.09-.095.029-.033.043-.067.068-.1q.122-.165.226-.335c.029-.048.067-.09.09-.14.014-.024.022-.05.035-.074.054-.1.097-.2.14-.3.026-.059.06-.116.082-.175.008-.02.01-.04.018-.06.033-.096.057-.193.082-.29.017-.064.042-.128.056-.192q-.001-.027.005-.052c.02-.102.027-.204.036-.306.005-.066.02-.13.022-.196V8.87l.01-2.99q.002.005.001.017"></path><path fill="#fff" d="M19.096 3.588c3.588 2.071 3.607 5.438.042 7.51s-9.383 2.079-12.972 0-3.608-5.439-.036-7.514 9.37-2.072 12.966.004"></path><path fill="#58CC58" d="M21.134 11.425H4.12L5.822 21.52c.006 1.01.677 2.018 2.012 2.789 2.663 1.536 6.97 1.536 9.622 0 1.323-.77 1.981-1.777 1.976-2.786z"></path><path fill="#0E7A46" d="M18.773 2.284a9.4 9.4 0 0 0-1.254-.601q-.035-.013-.071-.025c-.071-.027-.146-.048-.219-.073-.252-.09-.503-.18-.767-.26-.143-.04-.29-.07-.436-.106q-.126-.031-.25-.061c-.086-.02-.148-.04-.224-.055q-.428-.09-.866-.15c-.102-.016-.207-.023-.31-.036l-.218-.024c-.107-.01-.213-.027-.32-.035a15 15 0 0 0-.862-.046h-.894q-.486.015-.968.065c-.036 0-.069.01-.104.014-.085.01-.166.025-.25.034-.255.032-.51.061-.758.106-.106.02-.204.055-.31.077-.298.061-.585.136-.872.217-.153.043-.316.068-.465.116-.12.04-.232.09-.35.132a7 7 0 0 0-.337.129 9 9 0 0 0-1.214.575l-.106.062c-.08.048-.148.1-.224.15-.106.069-.214.136-.312.208-.099.071-.163.128-.244.193s-.18.145-.27.22l-.052.042c-.034.032-.057.065-.09.097a5 5 0 0 0-.371.399c-.025.028-.057.056-.08.09-.022.034-.039.06-.061.09q-.11.151-.204.305c-.027.042-.062.083-.09.126-.013.023-.02.046-.032.068q-.072.135-.128.271c-.022.053-.053.104-.073.157-.007.019-.009.037-.016.056-.031.09-.053.175-.075.263-.016.057-.038.115-.05.173q.001.024-.005.047c-.018.09-.024.18-.032.278-.005.06-.019.118-.02.181v.077L3.91 8.82c0-.085.014-.17.02-.255.008-.085.016-.181.032-.271.014-.074.037-.149.057-.223.022-.09.044-.175.075-.262.025-.071.058-.142.09-.213.04-.09.079-.18.127-.271q.056-.098.117-.194a4 4 0 0 1 .346-.48q.175-.21.37-.398l.142-.14c.083-.075.175-.147.264-.219s.159-.13.245-.193c.087-.063.205-.138.31-.207s.214-.146.333-.214a9.5 9.5 0 0 1 1.214-.576c.11-.044.223-.09.336-.127.264-.095.542-.171.813-.248s.575-.156.871-.217c.352-.072.706-.138 1.068-.18.084-.012.166-.027.25-.036q.73-.076 1.469-.081h.234c.484 0 .968.03 1.446.081l.217.024q.706.084 1.4.24.125.029.249.061.612.15 1.206.362c.072.026.147.046.217.073q.687.261 1.325.625c1.717.99 2.571 2.292 2.567 3.591l.009-2.99c.011-1.307-.842-2.609-2.556-3.598"></path><path fill="#0E7A46" d="M22.23 6.159c-.008.101-.016.202-.034.304-.015.082-.04.164-.061.246-.026.096-.049.193-.083.289-.028.078-.065.156-.099.234q-.066.15-.14.3c-.04.072-.086.143-.13.214a4.4 4.4 0 0 1-.381.53q-.193.23-.409.44c-.053.051-.101.104-.157.154-.09.082-.195.163-.294.243-.1.08-.174.144-.271.213-.097.068-.227.153-.343.23-.117.075-.236.16-.362.235a10 10 0 0 1-.904.458q-.135.06-.27.117-.37.155-.757.287c-.09.031-.181.065-.277.09-.163.051-.33.096-.498.143q-.187.053-.377.1-.264.063-.533.115c-.12.024-.24.052-.361.074a15 15 0 0 1-1.096.152q-.171.017-.342.028-.325.03-.653.044-.207.008-.416.012c-.176 0-.354.004-.53 0q-.22-.002-.439-.013a15 15 0 0 1-.934-.062 16.979 16.979 0 0 1-.913-.115 14 14 0 0 1-.51-.09c-.134-.027-.271-.053-.4-.082-.202-.044-.4-.09-.598-.146-.11-.03-.22-.056-.33-.09a13 13 0 0 1-1.03-.348c-.048-.019-.09-.04-.14-.06q-.676-.258-1.31-.607c-.947-.547-1.659-1.18-2.132-1.857-.474-.676-.71-1.396-.708-2.12L3 8.812c0 1.438.943 2.878 2.84 3.977q.628.356 1.298.622c.03.011.055.029.085.04.03.012.037.012.054.02q.502.192 1.032.347c.028.008.054.02.08.027.081.023.166.04.247.06q.297.08.6.148.08.02.157.038c.08.017.162.027.241.043q.254.047.513.09c.067.01.133.025.201.035.069.01.152.016.228.026q.24.03.483.054c.075.007.15.019.226.025.075.006.145.006.217.012q.244.016.49.026c.08 0 .162.01.242.013h.989c.052 0 .103-.008.155-.01q.33-.016.654-.044c.09-.008.174-.009.26-.018.027 0 .053-.008.08-.01q.555-.06 1.097-.153.027-.002.054-.008c.104-.018.205-.045.31-.066.18-.037.356-.072.531-.114.129-.031.253-.067.38-.101.166-.046.333-.09.495-.142l.108-.031c.059-.019.112-.044.17-.064.258-.09.51-.181.756-.287l.271-.116q.463-.207.904-.46l.117-.069c.09-.053.164-.111.249-.165.117-.076.235-.151.343-.23s.181-.142.272-.213c.09-.072.202-.16.294-.243q.029-.024.058-.048c.037-.034.063-.072.1-.107q.216-.208.408-.44c.026-.032.062-.061.09-.094.028-.032.043-.067.067-.1q.122-.165.226-.335c.029-.048.068-.09.09-.14.014-.024.022-.05.036-.074.053-.1.096-.2.14-.3.025-.059.06-.115.081-.174.008-.02.011-.041.018-.06.034-.097.057-.193.082-.29.018-.064.043-.128.056-.193q-.002-.027.006-.052c.019-.102.026-.203.035-.305.006-.066.02-.13.023-.197v-.084l.009-2.99c.006.084-.01.178-.017.272"></path><path fill="#58CC58" d="M19.418 1.909c3.764 2.169 3.784 5.709.044 7.882s-9.85 2.176-13.613 0-3.79-5.712-.045-7.889 9.843-2.17 13.614.007M6.495 9.419c3.407 1.967 8.932 1.964 12.318 0s3.367-5.164-.04-7.132-8.934-1.97-12.319 0c-3.385 1.971-3.367 5.172.04 7.14"></path><path fill="#0E7A46" d="m11.995 7.761 6.433-6.433c-4.28.009-6.71 1.868-6.433 6.433"></path><path fill="#58CC58" d="M11.995 7.761c4.566.277 6.425-2.152 6.433-6.433z"></path><path fill="#0E7A46" d="m5.349 18.706 11.384-6.572-5.282.204-5.275-.204-1.264-.71h-.791z"></path></svg>